Coordinates
version=1
nRows=22
nColumns=24
inDegrees=yes

Units are S.I. units (second, meters, Newtons, ...)
If the header above contains a line with 'inDegrees', this indicates whether rotational values are in degrees (yes) or radians (no).

endheader
time	pelvis_tilt	pelvis_list	pelvis_rotation	pelvis_tx	pelvis_ty	pelvis_tz	hip_flexion_r	hip_adduction_r	hip_rotation_r	knee_angle_r	ankle_angle_r	subtalar_angle_r	mtp_angle_r	hip_flexion_l	hip_adduction_l	hip_rotation_l	knee_angle_l	ankle_angle_l	subtalar_angle_l	mtp_angle_l	lumbar_extension	lumbar_bending	lumbar_rotation
      1.44000000	      9.45118433	     -0.14758475	     -3.41500402	      0.39610758	      0.97340799	     -0.01664017	     -7.91214513	     -2.17602038	      1.58632508	     -1.70623793	      0.50858674	      0.00000000	      0.00000000	     -6.56282253	     -1.37490230	      0.65799874	     -7.11694142	      4.52630724	      0.00000000	      0.00000000	    -27.43493173	     -2.72085397	      1.61268789
      1.45000000	      9.47717972	     -0.15955884	     -3.43235444	      0.39802666	      0.97374320	     -0.01632274	     -8.29195008	     -2.15676292	      1.46830521	     -1.26893222	      0.38968865	      0.00000000	      0.00000000	     -7.04600611	     -1.39928688	      0.51836326	     -6.48037914	      4.36733184	      0.00000000	      0.00000000	    -26.80001849	     -2.78006039	      1.56282215
      1.46000000	     10.08414458	     -0.15815057	     -3.41130349	      0.40012227	      0.97479296	     -0.01605008	     -9.48932182	     -2.19368111	      1.36578092	     -0.48699371	      0.01847066	      0.00000000	      0.00000000	     -8.30296480	     -1.37966532	      0.51334462	     -5.56300024	      3.96979735	      0.00000000	      0.00000000	    -26.94271035	     -2.87122011	      1.77028438
      1.47000000	     10.43262836	     -0.19088954	     -3.34234938	      0.40197400	      0.97543939	     -0.01592717	    -10.30526096	     -2.16905994	      1.19634016	      0.10639595	     -0.22037690	      0.00000000	      0.00000000	     -9.15555448	     -1.41231781	      0.50371787	     -4.85817045	      3.73548385	      0.00000000	      0.00000000	    -26.78563040	     -2.87807315	      1.80837754
      1.48000000	     10.53089342	     -0.21169796	     -3.24759481	      0.40362693	      0.97576655	     -0.01590223	    -10.77632027	     -2.13716083	      1.02056837	      0.57927460	     -0.41658053	      0.00000000	      0.00000000	     -9.65089895	     -1.44542359	      0.48761468	     -4.28177605	      3.53314721	      0.00000000	      0.00000000	    -26.30808359	     -2.86808148	      1.76426110
      1.49000000	     11.12779953	     -0.25816740	     -3.10852877	      0.40533871	      0.97658939	     -0.01599495	    -11.91226616	     -2.10325751	      0.74994566	      1.27038816	     -0.68970981	      0.00000000	      0.00000000	    -10.75661508	     -1.48818411	      0.58243655	     -3.58359369	      3.30497296	      0.00000000	      0.00000000	    -26.58848078	     -2.85421713	      1.77972922
      1.50000000	     11.21021077	     -0.26838476	     -2.97299435	      0.40677864	      0.97680968	     -0.01615608	    -12.35157801	     -2.07635267	      0.50713490	      1.73056853	     -0.87522109	      0.00000000	      0.00000000	    -11.17109414	     -1.51435433	      0.62112819	     -3.09682761	      3.13669789	      0.00000000	      0.00000000	    -26.21199523	     -2.81363255	      1.72616068
      1.51000000	     11.75023875	     -0.29084270	     -2.74388213	      0.40830711	      0.97751420	     -0.01650210	    -13.41244163	     -2.04216397	      0.14919675	      2.40291982	     -1.17753807	      0.00000000	      0.00000000	    -12.15922527	     -1.54830958	      0.80053791	     -2.45340711	      2.91933321	      0.00000000	      0.00000000	    -26.44170440	     -2.75465474	      1.65886982
      1.52000000	     11.95794531	     -0.28879792	     -2.54027565	      0.40963676	      0.97783580	     -0.01683072	    -14.02978866	     -2.01702742	     -0.15051466	      2.94882612	     -1.44485170	      0.00000000	      0.00000000	    -12.71845480	     -1.57397476	      0.93997591	     -1.91525281	      2.68258564	      0.00000000	      0.00000000	    -26.28884431	     -2.71129675	      1.56905206
      1.53000000	     12.40923718	     -0.28501564	     -2.32233059	      0.41102941	      0.97836489	     -0.01722513	    -14.94162162	     -1.99520760	     -0.48891666	      3.52786720	     -1.64640457	      0.00000000	      0.00000000	    -13.55967246	     -1.58689382	      1.05682681	     -1.35521880	      2.52058235	      0.00000000	      0.00000000	    -26.44714018	     -2.66509452	      1.40247625
      1.54000000	     12.56766486	     -0.25337293	     -2.09702355	      0.41227889	      0.97859424	     -0.01766894	    -15.50107229	     -1.98731357	     -0.81776077	      4.07124419	     -1.90650716	      0.00000000	      0.00000000	    -14.05411254	     -1.59123583	      1.20799756	     -0.81657456	      2.27705126	      0.00000000	      0.00000000	    -26.28014042	     -2.62483949	      1.29848213
      1.55000000	     12.96840791	     -0.21926230	     -1.87031499	      0.41360947	      0.97901504	     -0.01813631	    -16.36010288	     -1.97996146	     -1.17440113	      4.66181942	     -2.12865073	      0.00000000	      0.00000000	    -14.84069783	     -1.58498586	      1.34881492	     -0.24216613	      2.07552030	      0.00000000	      0.00000000	    -26.42425217	     -2.58982718	      1.10751869
      1.56000000	     13.24458637	     -0.16632212	     -1.64441702	      0.41487845	      0.97931299	     -0.01862735	    -17.07224149	     -1.98726661	     -1.50048096	      5.24256860	     -2.38346437	      0.00000000	      0.00000000	    -15.49358711	     -1.56809985	      1.48950583	      0.34895748	      1.81662841	      0.00000000	      0.00000000	    -26.43566800	     -2.56007099	      0.89466727
      1.57000000	     13.45803168	     -0.10259188	     -1.42212966	      0.41610496	      0.97952306	     -0.01912066	    -17.71434202	     -1.99418507	     -1.84337511	      5.82844494	     -2.63878028	      0.00000000	      0.00000000	    -16.07085667	     -1.54650394	      1.63018980	      0.93329820	      1.55714669	      0.00000000	      0.00000000	    -26.38534938	     -2.53706499	      0.72298358
      1.58000000	     13.50428059	     -0.02818314	     -1.20414996	      0.41731620	      0.97955337	     -0.01964310	    -18.16164754	     -2.00747471	     -2.18768569	      6.39597271	     -2.91422921	      0.00000000	      0.00000000	    -16.44775425	     -1.51713865	      1.77203768	      1.48677934	      1.27401720	      0.00000000	      0.00000000	    -26.13275007	     -2.51518625	      0.64153679
      1.59000000	     13.77139390	      0.05871013	     -0.96147211	      0.41858705	      0.97976909	     -0.02020791	    -18.90772837	     -2.01890260	     -2.58338845	      7.05627740	     -3.20879582	      0.00000000	      0.00000000	    -17.09744596	     -1.48087829	      1.94449594	      2.09407569	      1.00068162	      0.00000000	      0.00000000	    -26.15217290	     -2.49270562	      0.47199177
      1.60000000	     13.94651233	      0.13963342	     -0.74775749	      0.41990838	      0.97986415	     -0.02077335	    -19.54868374	     -2.03454851	     -2.91331514	      7.70462006	     -3.49678662	      0.00000000	      0.00000000	    -17.64920622	     -1.44307481	      2.07489751	      2.69206314	      0.72047526	      0.00000000	      0.00000000	    -26.09403992	     -2.47260962	      0.23392463
      1.61000000	     13.99292858	      0.23706147	     -0.52037333	      0.42117694	      0.97981762	     -0.02138549	    -20.04196881	     -2.05316954	     -3.29046149	      8.34686726	     -3.80971357	      0.00000000	      0.00000000	    -18.02074151	     -1.39630753	      2.23929209	      3.22493810	      0.45569124	      0.00000000	      0.00000000	    -25.86301094	     -2.44592603	      0.11111726
      1.62000000	     13.95000199	      0.31397862	     -0.33836412	      0.42246348	      0.97966984	     -0.02196894	    -20.41744316	     -2.06996931	     -3.57382786	      8.95073806	     -4.08207632	      0.00000000	      0.00000000	    -18.28575951	     -1.35215561	      2.33141332	      3.72202429	      0.22051931	      0.00000000	      0.00000000	    -25.48273475	     -2.40943410	      0.01744894
      1.63000000	     14.12988146	      0.42621577	     -0.09177134	      0.42379930	      0.97970078	     -0.02264448	    -21.09689705	     -2.08686346	     -4.00103854	      9.65253408	     -4.41841715	      0.00000000	      0.00000000	    -18.79131457	     -1.29943068	      2.56177273	      4.21902848	      0.00210913	      0.00000000	      0.00000000	    -25.48038325	     -2.39390102	     -0.20911034
      1.64000000	     14.04789859	      0.50420140	      0.06841240	      0.42506098	      0.97947822	     -0.02323532	    -21.41754156	     -2.11034852	     -4.26056144	     10.24275344	     -4.70677869	      0.00000000	      0.00000000	    -18.97369249	     -1.25153075	      2.67829856	      4.63433163	     -0.19426616	      0.00000000	      0.00000000	    -25.10198908	     -2.36603008	     -0.31576904
      1.65000000	     13.99843964	      0.59404245	      0.24688679	      0.42631507	      0.97927051	     -0.02388455	    -21.76041555	     -2.13970668	     -4.55026150	     10.79710247	     -4.95798211	      0.00000000	      0.00000000	    -19.15228512	     -1.19456942	      2.81924437	      4.97259908	     -0.32606141	      0.00000000	      0.00000000	    -24.77630895	     -2.33525805	     -0.41943560
